<svg width="82" height="81" viewBox="0 0 82 81" fill="none" xmlns="http://www.w3.org/2000/svg">
<g clip-path="url(#clip0)" filter="url(#filter0_d)">
<path d="M68.4329 13.7594L29.4823 3.3226C23.0003 1.58576 16.338 5.43248 14.6012 11.9142L7.75599 37.461C6.01919 43.9428 9.86587 50.6053 16.3476 52.3421L21.9375 53.8399C22.2035 53.9111 22.3613 54.1844 22.29 54.4504L18.9134 67.0521C18.5141 68.542 20.1431 69.7528 21.4546 68.9408L38.4434 58.4252C38.5604 58.3527 38.7021 58.3319 38.8349 58.3675L55.2982 62.7788C61.78 64.5156 68.4425 60.669 70.1793 54.1873L77.0245 28.6405C78.7613 22.1587 74.9146 15.4962 68.4329 13.7594Z" fill="#EC5569"/>
<path d="M28.5302 50.912C28.6053 50.6319 28.4574 50.349 28.1999 50.28L22.7883 48.83C16.5133 47.1486 12.909 40.2523 14.7379 33.4267L21.9463 6.52454C22.2558 5.36955 22.7015 4.29095 23.258 3.30343C19.1775 4.37657 15.7714 7.54719 14.6012 11.9143L7.75598 37.4611C6.01922 43.9428 9.86586 50.6054 16.3476 52.3421L21.9375 53.84C22.2035 53.9112 22.3612 54.1846 22.29 54.4505L18.9134 67.0522C18.5141 68.5421 20.1431 69.7529 21.4546 68.9409L24.1456 67.2751L28.5301 50.9119L28.5302 50.912Z" fill="#E63950"/>
<path d="M58.0635 27.3057C55.8822 23.5275 51.0511 22.233 47.2728 24.4143L45.1386 25.6465C44.6297 25.9402 43.9789 25.7659 43.6851 25.257L42.4726 23.1569C40.2913 19.3788 35.4602 18.0843 31.6819 20.2656C27.9037 22.4469 26.6092 27.278 28.7905 31.0563L37.9031 46.8398C38.1969 47.3487 38.8477 47.523 39.3565 47.2293L55.172 38.0964C58.9503 35.915 60.2448 31.084 58.0635 27.3057Z" fill="#EC5569"/>
<path d="M58.0635 27.3057C55.8822 23.5275 51.0511 22.233 47.2728 24.4143L45.1386 25.6465C44.6297 25.9402 43.9789 25.7659 43.6851 25.257L42.4726 23.1569C40.2913 19.3788 35.4602 18.0843 31.6819 20.2656C27.9037 22.4469 26.6092 27.278 28.7905 31.0563L37.9031 46.8398C38.1969 47.3487 38.8477 47.523 39.3565 47.2293L55.172 38.0964C58.9503 35.915 60.2448 31.084 58.0635 27.3057Z" fill="#FFF5F5"/>
<path d="M32.7819 32.1259C30.6006 28.3477 31.8951 23.5166 35.6733 21.3351C36.9126 20.6196 38.2652 20.2803 39.6003 20.2778C37.234 18.9055 34.2207 18.7998 31.682 20.2656C27.9038 22.447 26.6093 27.2781 28.7906 31.0564L37.9032 46.8399C38.197 47.3487 38.8478 47.5231 39.3567 47.2294L40.9655 46.3003L32.7819 32.1259Z" fill="#DCE6EB"/>
</g>
<defs>
<filter id="filter0_d" x="-4" y="0" width="88.8332" height="88.8332" filterUnits="userSpaceOnUse" color-interpolation-filters="sRGB">
<feFlood flood-opacity="0" result="BackgroundImageFix"/>
<feColorMatrix in="SourceAlpha" type="matrix" values="0 0 0 0 0 0 0 0 0 0 0 0 0 0 0 0 0 0 127 0"/>
<feOffset dy="4"/>
<feGaussianBlur stdDeviation="2"/>
<feColorMatrix type="matrix" values="0 0 0 0 0 0 0 0 0 0 0 0 0 0 0 0 0 0 0.25 0"/>
<feBlend mode="normal" in2="BackgroundImageFix" result="effect1_dropShadow"/>
<feBlend mode="normal" in="SourceGraphic" in2="effect1_dropShadow" result="shape"/>
</filter>
<clipPath id="clip0">
<rect width="66" height="66" fill="white" transform="translate(17.0821) rotate(15)"/>
</clipPath>
</defs>
</svg>
